<svg fill="none" xmlns="http://www.w3.org/2000/svg" viewBox="0 0 90 90" class="service-icon"><path d="M44.576 89c24.066 0 43.576-19.7 43.576-44S68.642 1 44.576 1 1 20.7 1 45s19.51 44 43.576 44Z" stroke="#fff" stroke-width="1.5" stroke-miterlimit="10"/><path d="M44.435 71.4c14.44 0 26.145-11.82 26.145-26.4 0-14.58-11.706-26.4-26.145-26.4-14.44 0-26.146 11.82-26.146 26.4 0 14.58 11.706 26.4 26.146 26.4Z" stroke="#fff" stroke-opacity=".5" stroke-width="1.5" stroke-miterlimit="10"/><path d="M46.952 71.4V52.29h-27.64M1.852 44.875c26.768-19.11 59.637 19.613 87.152 0" stroke="#fff" stroke-width="1.5" stroke-miterlimit="10"/><path d="M60.391 39.342c1.1 0 1.993-.9 1.993-2.012a2.002 2.002 0 0 0-1.993-2.012c-1.1 0-1.993.9-1.993 2.012 0 1.111.893 2.012 1.993 2.012ZM52.79 39.342c1.1 0 1.992-.9 1.992-2.012a2.002 2.002 0 0 0-1.992-2.012c-1.101 0-1.993.9-1.993 2.012 0 1.111.892 2.012 1.992 2.012ZM45.329 39.342c1.1 0 1.992-.9 1.992-2.012a2.002 2.002 0 0 0-1.992-2.012c-1.1 0-1.993.9-1.993 2.012 0 1.111.892 2.012 1.993 2.012Z" fill="#fff" fill-opacity=".5"/></svg>